<?xml version="1.0" encoding="UTF-8"?>
<svg version="1.1" xmlns="http://www.w3.org/2000/svg" width="464" height="192">
<path d="M0 0 C4.72247364 0.01141704 9.44472032 0.00479326 14.16718578 -0.00714493 C17.87467584 -0.01445888 21.58211427 -0.01203293 25.28960609 -0.00688934 C27.02866965 -0.00558032 28.76773832 -0.00710074 30.50679588 -0.01184845 C39.78158747 -0.03163917 48.95449735 0.25431724 58.19091797 1.140625 C59.00196834 1.21649715 59.8130187 1.29236931 60.64864635 1.37054062 C73.05577281 2.68204087 83.27285159 7.16369737 93.47485352 14.26074219 C95.28370392 15.39160091 97.09626027 16.51655205 98.91235352 17.63574219 C102.92261058 20.18356933 106.74466533 22.8992511 110.53735352 25.76074219 C111.54411133 26.51484375 112.55086914 27.26894531 113.58813477 28.04589844 C115.38961356 29.42808853 117.16390963 30.84738608 118.89282227 32.31933594 C125.29743447 37.47950088 131.06181287 38.36438185 139.03344727 38.97167969 C142.47485352 39.26074219 142.47485352 39.26074219 145.47485352 40.26074219 C148.39122768 40.55887355 151.30433062 40.82392926 154.22485352 41.07324219 C162.07623 41.80365329 169.8292579 42.8589004 177.59985352 44.19824219 C178.53410156 44.35591064 179.46834961 44.5135791 180.4309082 44.67602539 C196.81308253 47.58889863 209.22417676 54.08258619 219.4362793 67.55566406 C221.64007445 71.17374242 221.6654869 74.55710135 221.20532227 78.65527344 C220.04497087 82.79406692 218.81769701 84.49926278 215.47485352 87.26074219 C213.47888132 87.93937274 211.479168 88.60716138 209.47485352 89.26074219 C207.81185387 91.67129473 207.81185387 91.67129473 206.47485352 94.26074219 C203.98942848 96.90855362 201.94484101 97.47426509 198.44067383 97.69311523 C196.81175114 97.73442575 195.18237695 97.75995334 193.55297852 97.77246094 C192.69299255 97.79041214 191.83300659 97.80836334 190.94696045 97.82685852 C188.20630767 97.88094257 185.46582886 97.91485081 182.72485352 97.94824219 C180.86415224 97.98141698 179.0034739 98.01590679 177.14282227 98.05175781 C172.58695824 98.13666787 168.03114564 98.20348803 163.47485352 98.26074219 C163.01852539 99.20618896 162.56219727 100.15163574 162.09204102 101.12573242 C158.48894343 108.11054161 151.28294753 113.40048225 144.10375977 116.41308594 C138.99137646 117.60725943 134.02445574 117.76711564 128.78735352 117.82324219 C127.80105957 117.83806641 126.81476563 117.85289062 125.79858398 117.86816406 C118.00971228 117.75792561 112.83234472 116.03302813 106.83032227 111.07714844 C106.11489258 110.33335937 105.39946289 109.58957031 104.66235352 108.82324219 C103.56987305 107.71142578 103.56987305 107.71142578 102.45532227 106.57714844 C97.47485352 100.75186645 97.47485352 100.75186645 97.47485352 97.26074219 C96.15485352 97.26074219 94.83485352 97.26074219 93.47485352 97.26074219 C93.47485352 99.24074219 93.47485352 101.22074219 93.47485352 103.26074219 C91.82485352 103.26074219 90.17485352 103.26074219 88.47485352 103.26074219 C88.47485352 90.39074219 88.47485352 77.52074219 88.47485352 64.26074219 C85.17485352 64.26074219 81.87485352 64.26074219 78.47485352 64.26074219 C78.47485352 62.61074219 78.47485352 60.96074219 78.47485352 59.26074219 C86.72485352 59.26074219 94.97485352 59.26074219 103.47485352 59.26074219 C103.47485352 60.91074219 103.47485352 62.56074219 103.47485352 64.26074219 C100.17485352 64.26074219 96.87485352 64.26074219 93.47485352 64.26074219 C93.47485352 73.50074219 93.47485352 82.74074219 93.47485352 92.26074219 C96.44485352 92.26074219 99.41485352 92.26074219 102.47485352 92.26074219 C102.63985352 93.25074219 102.80485352 94.24074219 102.97485352 95.26074219 C104.78514985 101.41574974 109.45726217 105.51474525 114.88500977 108.65527344 C124.08182729 112.5809135 135.62928658 112.99794198 145.09985352 109.69824219 C150.92100631 106.95426444 153.99640281 102.47841825 157.47485352 97.26074219 C157.85985243 95.60524688 158.20278486 93.93849889 158.47485352 92.26074219 C159.73144775 92.2566333 160.98804199 92.25252441 162.28271484 92.24829102 C166.94035996 92.22653621 171.59715588 92.17228477 176.25439453 92.1081543 C178.27091337 92.08494234 180.28755398 92.0705711 182.30419922 92.06518555 C185.20170262 92.05591924 188.09728211 92.01498087 190.99438477 91.96777344 C192.34920708 91.97367241 192.34920708 91.97367241 193.73139954 91.97969055 C196.08563487 91.92467985 198.19133869 91.83678751 200.47485352 91.26074219 C202.56329106 88.97898663 202.56329106 88.97898663 203.47485352 86.26074219 C206.62455212 82.32361894 209.61402894 81.38247094 214.47485352 80.26074219 C214.76252658 77.21140766 214.92134603 74.29906929 214.47485352 71.26074219 C212.18841539 69.48878345 212.18841539 69.48878345 209.47485352 68.26074219 C208.45794088 66.26928827 207.45842703 64.26887145 206.47485352 62.26074219 C195.55695647 51.34284514 177.20174695 49.26144822 162.47094727 48.43652344 C160.47485352 48.26074219 160.47485352 48.26074219 157.47485352 47.26074219 C155.42432255 46.98786191 153.36854197 46.75365682 151.31079102 46.54199219 C149.50481445 46.35056641 149.50481445 46.35056641 147.66235352 46.15527344 C145.112957 45.89145269 142.56347708 45.62843667 140.01391602 45.36621094 C138.21180664 45.17478516 138.21180664 45.17478516 136.37329102 44.97949219 C135.26646973 44.86541016 134.15964844 44.75132813 133.01928711 44.63378906 C130.47485352 44.26074219 130.47485352 44.26074219 129.47485352 43.26074219 C128.42040039 43.17308594 127.36594727 43.08542969 126.27954102 42.99511719 C121.74177441 42.11924437 119.97929734 40.6062761 116.59985352 37.51074219 C112.47851139 33.85392203 108.45142348 30.90823145 103.54516602 28.39355469 C101.39316578 27.21604513 99.53924521 25.88543374 97.59985352 24.38574219 C83.76037266 13.73153867 69.4752846 7.6122218 51.89282227 6.68652344 C50.75274971 6.62556992 50.75274971 6.62556992 49.58964539 6.56338501 C37.00068598 5.97344176 24.38663495 6.10722096 11.78735352 6.13574219 C10.41631063 6.13831644 9.04526774 6.14089009 7.67422485 6.14346313 C-0.26550574 6.16005607 -8.20503854 6.19386363 -16.14465332 6.2411499 C-19.09342337 6.25824005 -22.04217192 6.27105373 -24.9909668 6.28271484 C-57.20540605 6.02893435 -57.20540605 6.02893435 -85.28295898 19.65527344 C-89.57465246 24.03903294 -93.51953913 28.40737905 -97.10717773 33.38183594 C-101.70639943 39.47612144 -106.56504953 43.23274124 -113.52514648 46.26074219 C-114.13156982 46.59759033 -114.73799316 46.93443848 -115.36279297 47.28149414 C-117.7114617 48.3451173 -119.45372276 48.59354251 -122.01733398 48.75292969 C-122.88092529 48.81585205 -123.7445166 48.87877441 -124.63427734 48.94360352 C-125.54701416 49.00700928 -126.45975098 49.07041504 -127.40014648 49.13574219 C-144.52523195 50.35620864 -144.52523195 50.35620864 -158.52514648 59.26074219 C-160.7347806 62.57519336 -161.49633232 66.43943244 -162.52514648 70.26074219 C-165.00014648 70.75574219 -165.00014648 70.75574219 -167.52514648 71.26074219 C-167.52514648 74.56074219 -167.52514648 77.86074219 -167.52514648 81.26074219 C-166.20514648 81.92074219 -164.88514648 82.58074219 -163.52514648 83.26074219 C-163.52514648 85.57074219 -163.52514648 87.88074219 -163.52514648 90.26074219 C-162.71526276 90.25630096 -161.90537903 90.25185974 -161.07095337 90.24728394 C-153.44862051 90.20725468 -145.82633843 90.17678204 -138.20392799 90.15711784 C-134.28491365 90.14666854 -130.36598595 90.13248857 -126.44702148 90.10986328 C-122.6669161 90.08817557 -118.8868942 90.07618221 -115.10673141 90.0709877 C-113.66258809 90.06728459 -112.21844948 90.06005359 -110.77434158 90.04928207 C-108.75593754 90.03482202 -106.73744996 90.03392574 -104.71899414 90.03369141 C-102.99357895 90.02702957 -102.99357895 90.02702957 -101.23330688 90.02023315 C-98.52514648 90.26074219 -98.52514648 90.26074219 -96.52514648 92.26074219 C-96.21577148 93.80761719 -96.21577148 93.80761719 -95.90014648 95.38574219 C-94.2581982 101.43569011 -89.45889712 105.42005857 -84.30249023 108.65527344 C-75.06308347 113.02046895 -63.30557972 112.71668634 -53.74780273 109.38183594 C-48.62163809 106.79623093 -44.68666534 103.00302047 -41.52514648 98.26074219 C-40.81701834 95.9396555 -40.14490496 93.60697072 -39.52514648 91.26074219 C-38.20514648 91.59074219 -36.88514648 91.92074219 -35.52514648 92.26074219 C-35.28225234 96.91459397 -35.53440916 100.75184684 -38.13842773 104.71777344 C-46.04518218 113.20271834 -54.92587844 117.40423983 -66.37451172 117.9699707 C-79.33145964 118.16029618 -86.66411573 115.09887974 -96.15014648 106.19824219 C-99.49927101 102.85440019 -100.77283811 100.88873912 -101.52514648 96.26074219 C-102.71451813 96.25527374 -102.71451813 96.25527374 -103.92791748 96.24969482 C-111.40274792 96.2118181 -118.87707978 96.15496995 -126.3515892 96.07683945 C-130.19428966 96.0373404 -134.03676015 96.00516417 -137.87963867 95.98974609 C-141.58872664 95.97459497 -145.29718248 95.94017839 -149.00598907 95.89243317 C-150.4204992 95.87760315 -151.83509958 95.86970024 -153.24968719 95.86885834 C-155.23191352 95.8664922 -157.21405198 95.83714912 -159.19604492 95.80664062 C-160.3241156 95.79775818 -161.45218628 95.78887573 -162.61444092 95.77972412 C-166.17013263 95.14574046 -167.32044763 94.0646846 -169.52514648 91.26074219 C-170.23225327 89.61082636 -170.90458637 87.94511963 -171.52514648 86.26074219 C-172.18514648 85.60074219 -172.84514648 84.94074219 -173.52514648 84.26074219 C-174.22194585 77.70901832 -174.65863303 70.7228494 -170.52514648 65.26074219 C-169.86514648 64.95136719 -169.20514648 64.64199219 -168.52514648 64.32324219 C-165.79036663 62.87039039 -165.62378307 60.96337815 -164.54077148 58.19824219 C-161.03552384 51.51130823 -154.40672724 48.4959123 -147.60620117 46.12866211 C-141.41427293 44.38442242 -135.05212887 44.03102087 -128.66577148 43.48339844 C-118.57041275 42.47882343 -111.35206578 40.02568583 -104.40014648 32.51074219 C-103.88935547 31.9799707 -103.37856445 31.44919922 -102.85229492 30.90234375 C-99.51174861 27.40484478 -96.3136408 23.78962624 -93.15014648 20.13183594 C-92.61389648 19.514375 -92.07764648 18.89691406 -91.52514648 18.26074219 C-90.92702148 17.57109375 -90.32889648 16.88144531 -89.71264648 16.17089844 C-69.41208149 -5.80773746 -27.14505134 -0.06631912 0 0 Z " fill="#1575AD" transform="translate(209.525146484375,27.7392578125)"/>
<path d="M0 0 C1.11568359 -0.03673828 2.23136719 -0.07347656 3.38085938 -0.11132812 C11.60420025 -0.15468493 16.44580433 1.8290009 23.0625 6.5625 C23.98023193 7.08126709 24.89796387 7.60003418 25.84350586 8.13452148 C26.94190796 8.84137085 26.94190796 8.84137085 28.0625 9.5625 C28.0625 10.2225 28.0625 10.8825 28.0625 11.5625 C29.0525 11.8925 30.0425 12.2225 31.0625 12.5625 C41.1165657 23.55494516 46.08147373 38.02215182 48.0625 52.5625 C48.15128418 53.19994141 48.24006836 53.83738281 48.33154297 54.49414062 C48.93630818 58.84681837 49.5094612 63.20290689 50.0625 67.5625 C54.12671782 61.536246 57.33073501 56.26530633 59.5625 49.3125 C59.77608154 48.6537085 59.98966309 47.99491699 60.2097168 47.31616211 C60.83106767 45.39948846 61.44689765 43.48102771 62.0625 41.5625 C62.66381384 39.74905155 63.26737877 37.93634482 63.875 36.125 C64.4628125 34.3615625 64.4628125 34.3615625 65.0625 32.5625 C65.7225 32.5625 66.3825 32.5625 67.0625 32.5625 C66.72093755 39.9380833 65.12003993 45.97337214 62.25 52.75 C61.90646484 53.60013672 61.56292969 54.45027344 61.20898438 55.32617188 C59.15469628 60.31735964 56.80391101 64.91733134 54.0625 69.5625 C53.588125 70.67625 53.11375 71.79 52.625 72.9375 C50.73226273 77.32865046 48.43961856 81.41898504 46.0625 85.5625 C44.5775 85.0675 44.5775 85.0675 43.0625 84.5625 C43.07297363 83.7468457 43.08344727 82.93119141 43.09423828 82.09082031 C43.12874532 79.00440557 43.15360235 75.91809059 43.17236328 72.83154297 C43.18712224 70.86288843 43.21256161 68.8943231 43.23828125 66.92578125 C43.31285107 52.23552707 41.72591102 34.94866186 31.84375 23.17578125 C21.3267129 13.6504823 6.38157973 13.9594708 -6.9375 14.5625 C-15.6744668 15.20737136 -23.57136163 17.55940564 -31.75927734 20.52978516 C-35.61635158 21.90980796 -38.77014451 22.94285387 -42.9375 22.5625 C-42.27047844 17.35083821 -40.38432885 15.63153694 -36.4453125 12.3984375 C-24.67142079 3.77892176 -14.52345088 0.02508368 0 0 Z " fill="#B33546" transform="translate(205.9375,44.4375)"/>
<path d="M0 0 C1.27738897 3.60375962 0.65045881 5.76781212 -0.4375 9.375 C-1.99722292 15.69259329 -2.30867285 21.6889921 -2.3125 28.1875 C-2.31757568 29.10128418 -2.32265137 30.01506836 -2.32788086 30.95654297 C-2.24737086 39.01189502 -1.5192341 47.02593454 2.4375 54.1875 C3.95757407 57.01175355 5.23183031 59.611189 6.375 62.625 C10.75235104 71.71642138 18.8778744 78.49030876 28.14453125 82.2890625 C35.04596095 84.56497882 41.74716196 85.70930509 49 86 C48.505 87.98 48.505 87.98 48 90 C34.10014924 90.53233471 23.1095702 87.78929343 12.5625 78.375 C11.02771053 76.93136175 9.50502197 75.47464538 8 74 C7.47148437 73.52175781 6.94296875 73.04351562 6.3984375 72.55078125 C3.15839063 68.95776838 1.236564 64.25649746 -1 60 C-1.40992188 59.27941406 -1.81984375 58.55882812 -2.2421875 57.81640625 C-4.92932401 52.94229368 -5.7433849 48.54288614 -6 43 C-7.92057292 43.03255208 -9.84114583 43.06510417 -11.76171875 43.09765625 C-14 43 -14 43 -19 42 C-20.32 46.95 -21.64 51.9 -23 57 C-24.98 57.495 -24.98 57.495 -27 58 C-26.53312242 50.30456952 -24.41030692 43.90718106 -21.625 36.75 C-21.22539062 35.6878125 -20.82578125 34.625625 -20.4140625 33.53125 C-18.58425124 28.74003368 -16.73799763 24.35130042 -14 20 C-13.31164062 18.89785156 -12.62328125 17.79570313 -11.9140625 16.66015625 C-11.15189296 15.46039627 -10.38885635 14.26118673 -9.625 13.0625 C-9.25117188 12.46759766 -8.87734375 11.87269531 -8.4921875 11.25976562 C-5.92472461 7.23711401 -3.12075072 3.61146947 0 0 Z M-8 17 C-10.29836038 19.79547765 -12.073069 22.73653465 -13.75 25.9375 C-14.19859375 26.77152344 -14.6471875 27.60554688 -15.109375 28.46484375 C-16.15949574 31.45400322 -16.01461378 33.02345446 -15 36 C-12.47825081 37.4472136 -12.47825081 37.4472136 -7 37 C-7 30.4 -7 23.8 -7 17 C-7.33 17 -7.66 17 -8 17 Z " fill="#1575AD" transform="translate(235,74)"/>
<path d="M0 0 C1.11568359 -0.03673828 2.23136719 -0.07347656 3.38085938 -0.11132812 C11.60420025 -0.15468493 16.44580433 1.8290009 23.0625 6.5625 C23.98023193 7.08126709 24.89796387 7.60003418 25.84350586 8.13452148 C26.94190796 8.84137085 26.94190796 8.84137085 28.0625 9.5625 C28.0625 10.2225 28.0625 10.8825 28.0625 11.5625 C29.0525 11.8925 30.0425 12.2225 31.0625 12.5625 C38.58835466 20.79076777 43.04623933 30.94360969 46.0625 41.5625 C45.5675 42.5525 45.5675 42.5525 45.0625 43.5625 C44.42634766 42.11230469 44.42634766 42.11230469 43.77734375 40.6328125 C36.28781787 23.80989238 36.28781787 23.80989238 21.63671875 13.5390625 C7.35941792 8.12278753 -11.54516322 8.92412091 -25.9375 13.5625 C-26.94296875 14.0678125 -27.9484375 14.573125 -28.984375 15.09375 C-31.8364709 16.51225272 -34.19298154 17.20197649 -37.3125 17.75 C-38.18648437 17.90855469 -39.06046875 18.06710938 -39.9609375 18.23046875 C-40.61320313 18.34003906 -41.26546875 18.44960938 -41.9375 18.5625 C-32.26420593 4.90608484 -15.97342597 0.02758796 0 0 Z " fill="#D83341" transform="translate(205.9375,44.4375)"/>
<path d="M0 0 C1.10794922 -0.0309375 1.10794922 -0.0309375 2.23828125 -0.0625 C8.57422908 -0.10719804 13.34086683 1.08795741 18.1875 5.4375 C18.703125 6.035625 19.21875 6.63375 19.75 7.25 C19.09 8.57 18.43 9.89 17.75 11.25 C15.53345373 10.22088923 13.64130823 9.16765775 11.6875 7.6875 C6.60051044 3.91328194 -0.23094466 4.73449586 -6.25 5.25 C-10.23298999 6.44969578 -12.71829326 8.73192677 -15.6875 11.625 C-18.27814803 17.63530344 -18.72426098 25.13560839 -16.484375 31.38671875 C-13.95238792 35.37560316 -10.65695678 37.78101441 -6.25 39.25 C-4.12749355 39.37040604 -2.00088413 39.42533819 0.125 39.4375 C1.24648437 39.45167969 2.36796875 39.46585938 3.5234375 39.48046875 C8.58177787 39.11915872 10.98824356 38.04638174 14.5 34.375 C16.99586846 31.31495258 16.99586846 31.31495258 17.75 27.25 C13.13 27.25 8.51 27.25 3.75 27.25 C3.75 25.93 3.75 24.61 3.75 23.25 C10.02 23.25 16.29 23.25 22.75 23.25 C22.75 32.53205128 22.75 32.53205128 18.75 37.25 C12.50491104 43.18909351 9.03259609 44.46684309 0.5 44.5625 C-0.34691406 44.59150391 -1.19382813 44.62050781 -2.06640625 44.65039062 C-8.85387747 44.71900425 -12.41008603 43.02597594 -17.33203125 38.21484375 C-18.18861328 37.21130859 -18.18861328 37.21130859 -19.0625 36.1875 C-19.93841797 35.18009766 -19.93841797 35.18009766 -20.83203125 34.15234375 C-24.89710879 28.69864468 -23.95680357 20.70547258 -23.25 14.25 C-21.79441657 10.91072036 -19.91698935 8.69927594 -17.25 6.25 C-16.71246094 5.73824219 -16.17492187 5.22648437 -15.62109375 4.69921875 C-10.63889909 0.26643904 -6.40759735 0.04381263 0 0 Z " fill="#1575AD" transform="translate(145.25,85.75)"/>
<path d="M0 0 C19.125 0 19.125 0 24.875 4 C27.50204553 7.70877016 27.79036415 10.07760502 27.54296875 14.55078125 C26.78783353 17.95703866 25.5022317 19.77142468 22.8671875 22.015625 C19.52636763 23.77689405 16.70070872 23.38283194 13 23 C15.80693493 28.28999275 19.02295967 32.54443877 23 37 C27 41.73684211 27 41.73684211 27 44 C24.7421875 44.27734375 24.7421875 44.27734375 22 44 C20.0078125 42.12890625 20.0078125 42.12890625 18.125 39.5625 C17.44308594 38.65757813 16.76117188 37.75265625 16.05859375 36.8203125 C15.37925781 35.88960937 14.69992188 34.95890625 14 34 C12.73652014 32.30698723 11.46622065 30.61903118 10.1875 28.9375 C9.64480469 28.20402344 9.10210937 27.47054687 8.54296875 26.71484375 C7.012215 24.72978557 7.012215 24.72978557 4 24 C4 30.6 4 37.2 4 44 C2.68 44 1.36 44 0 44 C0 29.48 0 14.96 0 0 Z M4 5 C4 9.62 4 14.24 4 19 C6.43816585 19.0809723 8.87364384 19.14046972 11.3125 19.1875 C12.00279297 19.21263672 12.69308594 19.23777344 13.40429688 19.26367188 C17.3924961 19.32901733 17.3924961 19.32901733 20.95703125 17.73828125 C22.20022158 15.66629737 22.40236315 14.40795707 22.375 12 C22.38273437 11.319375 22.39046875 10.63875 22.3984375 9.9375 C22.10156051 7.95175717 22.10156051 7.95175717 20.95703125 6.26171875 C17.92113939 4.30444715 14.79598107 4.68565055 11.3125 4.8125 C10.61060547 4.82603516 9.90871094 4.83957031 9.18554688 4.85351562 C7.45670171 4.88879818 5.72825235 4.94260417 4 5 Z " fill="#1575AD" transform="translate(177,87)"/>
<path d="M0 0 C3.67049854 0.59933417 3.93815729 0.91716762 6.359375 4.16015625 C7.1706941 5.45197781 7.96466136 6.75472141 8.75 8.0625 C10.1525 10.351875 11.555 12.64125 13 15 C15.97 10.05 18.94 5.1 22 0 C23.32 0.33 24.64 0.66 26 1 C25.56930684 5.06851222 24.01568237 7.6549251 21.76147461 11.01367188 C14.86830305 21.52619208 14.64451377 31.69915599 15 44 C13.68 44 12.36 44 11 44 C11.02731201 43.42781738 11.05462402 42.85563477 11.08276367 42.26611328 C11.60536819 27.26481802 9.11593603 17.67324238 -0.11962891 5.75732422 C-1 4 -1 4 -0.64208984 1.77783203 C-0.4302002 1.19114746 -0.21831055 0.60446289 0 0 Z " fill="#1575AD" transform="translate(319,87)"/>
<path d="M0 0 C1.32 0 2.64 0 4 0 C5.32 5.28 6.64 10.56 8 16 C10.31 11.38 12.62 6.76 15 2 C15.99 2.33 16.98 2.66 18 3 C19.1328125 5.6875 19.1328125 5.6875 20.125 9 C21.02154689 12.79576901 21.02154689 12.79576901 23 16 C25.15294651 10.71169451 27.27933894 5.44876003 29 0 C29.66 0 30.32 0 31 0 C31.59598389 6.70481876 29.41696024 11.81815939 27 18 C26.62875 19.19625 26.2575 20.3925 25.875 21.625 C25 24 25 24 23 25 C20.69 19.72 18.38 14.44 16 9 C13.28029284 14.25184831 10.98904449 19.43067543 9 25 C6 24 6 24 5.10864258 22.3293457 C4.87298584 21.61866943 4.6373291 20.90799316 4.39453125 20.17578125 C4.00297852 19.00305664 4.00297852 19.00305664 3.60351562 17.80664062 C3.34248047 16.98357422 3.08144531 16.16050781 2.8125 15.3125 C2.40354492 14.1069043 2.40354492 14.1069043 1.98632812 12.87695312 C0.54338213 8.45408858 -0.34250592 4.71135915 0 0 Z " fill="#1574AC" transform="translate(282,145)"/>
<path d="M0 0 C1.65 0 3.3 0 5 0 C5 14.52 5 29.04 5 44 C3.35 44 1.7 44 0 44 C0 29.48 0 14.96 0 0 Z " fill="#1575AD" transform="translate(278,87)"/>
<path d="M0 0 C0.99 0 1.98 0 3 0 C3 0.66 3 1.32 3 2 C3.99 1.34 4.98 0.68 6 0 C9.09014087 -0.60182519 11.91035203 -0.61143646 15 0 C18.5994734 3.01180427 19.80084148 4.88471231 20.625 9.5 C19.80084148 14.11528769 18.5994734 15.98819573 15 19 C10.28768487 19.93255974 7.01104074 19.67402716 3 17 C3 19.97 3 22.94 3 26 C2.01 26 1.02 26 0 26 C0 17.42 0 8.84 0 0 Z M4.5625 3.5625 C2.39603972 6.94217804 2.43711998 9.05983987 3 13 C4.47993156 15.56338689 4.47993156 15.56338689 7 17 C10.28060601 17.47842171 12.29946814 17.27652573 15.375 16.0625 C17.6640717 13.15713977 17.43961204 10.76722676 17.43359375 7.15625 C16.89960563 4.50074149 16.1642907 3.59816837 14 2 C10.10495209 1.50426663 7.90506283 1.41983152 4.5625 3.5625 Z " fill="#1575AD" transform="translate(429,152)"/>
<path d="M0 0 C1.32 0.33 2.64 0.66 4 1 C4 3.64 4 6.28 4 9 C4.66 8.67 5.32 8.34 6 8 C13.17207558 7.42160681 13.17207558 7.42160681 16.2421875 9.56640625 C18.65326345 12.90440695 18.40076337 15.17938902 18.25 19.25 C18.21390625 20.51328125 18.1778125 21.7765625 18.140625 23.078125 C18.07101562 24.52445313 18.07101562 24.52445313 18 26 C17.01 26.33 16.02 26.66 15 27 C14.93941406 26.01257813 14.87882812 25.02515625 14.81640625 24.0078125 C14.73261719 22.72648437 14.64882813 21.44515625 14.5625 20.125 C14.44068359 18.21074219 14.44068359 18.21074219 14.31640625 16.2578125 C14.20793973 13.11699848 14.20793973 13.11699848 13 11 C10.08347826 10.83318891 10.08347826 10.83318891 7 11 C4.14206684 13.85793316 4.59200059 16.14665584 4.375 20.125 C4.26285156 22.04699219 4.26285156 22.04699219 4.1484375 24.0078125 C4.09945313 24.99523437 4.05046875 25.98265625 4 27 C2.68 26.67 1.36 26.34 0 26 C0 17.42 0 8.84 0 0 Z " fill="#1575AD" transform="translate(383,144)"/>
<path d="M0 0 C3.20613573 1.89993229 5.39902918 3.33474007 6.69921875 6.9375 C7.33164463 10.5280469 7.22156229 12.51467308 5.6875 15.875 C2.48225826 19.91123034 2.48225826 19.91123034 -0.20703125 20.40625 C-6.95373149 20.64900983 -6.95373149 20.64900983 -9.76953125 18.90234375 C-12.24280587 16.22949654 -12.99976711 14.00165936 -13.5 10.4375 C-12.97300076 6.81438025 -12.22264703 4.88120911 -10 2 C-6.23124125 -0.51250583 -4.46849866 -0.53016086 0 0 Z M-8.875 4.5 C-10.56377991 8.25284424 -10.39174433 10.88668458 -10 15 C-9.10242444 17.14780077 -9.10242444 17.14780077 -7 18 C-3.10495209 18.49573337 -0.90506283 18.58016848 2.4375 16.4375 C4.61999672 13.03280512 4.63734462 10.96569988 4 7 C1.39364935 4.01036249 -0.21166809 3.12613311 -4.125 2.5 C-7.01449446 2.76474383 -7.01449446 2.76474383 -8.875 4.5 Z " fill="#1475AC" transform="translate(330,151)"/>
<path d="M0 0 C0.99 0.33 1.98 0.66 3 1 C3 4.96 3 8.92 3 13 C4.093125 12.01 5.18625 11.02 6.3125 10 C9.625 7 9.625 7 13 7 C11.50902342 10.7952131 9.24299151 12.61042731 6 15 C7.12923376 18.04893116 8.6343658 19.64541574 11.125 21.625 C12.07375 22.40875 13.0225 23.1925 14 24 C14 24.66 14 25.32 14 26 C10.60807637 25.40716379 8.7892243 24.23256811 6.25 21.9375 C5.32960938 21.11572266 5.32960938 21.11572266 4.390625 20.27734375 C3.93171875 19.85582031 3.4728125 19.43429688 3 19 C3 21.31 3 23.62 3 26 C2.01 26 1.02 26 0 26 C0 17.42 0 8.84 0 0 Z " fill="#1474AC" transform="translate(352,145)"/>
<path d="M0 0 C2.625 1.3125 2.625 1.3125 4 4 C4.79655676 9.09641653 5.15228194 13.40167343 2.0625 17.6875 C-2.09605419 19.46973751 -5.54997806 19.90931732 -10 19 C-13.0625 17 -13.0625 17 -15 14 C-15.8055735 8.92488695 -15.55355511 7.03330287 -13.125 2.5 C-9.4986945 -1.30294502 -4.86606143 -0.91084792 0 0 Z M-10.6875 3.24609375 C-12.77829699 6.04004568 -12.47409542 8.5214702 -12.34765625 11.90234375 C-12.14776118 14.15337335 -12.14776118 14.15337335 -10.375 16.0625 C-7.29946814 17.27652573 -5.28060601 17.47842171 -2 17 C0.52006844 15.56338689 0.52006844 15.56338689 2 13 C2.56288002 9.05983987 2.60396028 6.94217804 0.4375 3.5625 C-3.12637847 1.27796252 -7.10641341 0.60172657 -10.6875 3.24609375 Z " fill="#1575AD" transform="translate(420,152)"/>
<path d="M0 0 C0.33 0.99 0.66 1.98 1 3 C-0.98 3 -2.96 3 -5 3 C-5 3.99 -5 4.98 -5 6 C-4.401875 6.0825 -3.80375 6.165 -3.1875 6.25 C-0.29917175 7.24028397 0.52742652 8.34936773 2 11 C2.41641167 13.84547976 2.39667983 15.32331087 0.9375 17.8125 C-2.08503156 19.66501934 -4.54932719 19.37643703 -8 19 C-8.66 18.01 -9.32 17.02 -10 16 C-7.33333333 16 -4.66666667 16 -2 16 C-2 14.68 -2 13.36 -2 12 C-4.88788641 9.76915523 -4.88788641 9.76915523 -8 8 C-9 7 -9 7 -9.3125 4.625 C-9 2 -9 2 -7.3125 0.125 C-4.42729162 -1.27861489 -3.01268757 -0.92054342 0 0 Z " fill="#1575AD" transform="translate(378,152)"/>
<path d="M0 0 C2.97 0 5.94 0 9 0 C9 0.66 9 1.32 9 2 C8.19175781 2.38800781 7.38351562 2.77601563 6.55078125 3.17578125 C3.64288711 4.82103116 3.64288711 4.82103116 3.29296875 8.35546875 C3.25816406 9.62003906 3.22335937 10.88460937 3.1875 12.1875 C3.13980469 13.45980469 3.09210938 14.73210937 3.04296875 16.04296875 C3.02878906 17.01878906 3.01460938 17.99460938 3 19 C2.01 19 1.02 19 0 19 C0 12.73 0 6.46 0 0 Z " fill="#1474AC" transform="translate(340,152)"/>
<path d="" fill="#7F7F7F" transform="translate(0,0)"/>
<path d="" fill="#00FFFF" transform="translate(0,0)"/>
<path d="" fill="#00FFFF" transform="translate(0,0)"/>
<path d="" fill="#83B9D0" transform="translate(0,0)"/>
<path d="" fill="#FEEBEB" transform="translate(0,0)"/>
<path d="" fill="#7FBFBF" transform="translate(0,0)"/>
<path d="" fill="#7F7FFF" transform="translate(0,0)"/>
</svg>
